<mxfile host="app.diagrams.net" modified="2022-04-22T08:21:23.338Z" agent="5.0 (Windows NT 10.0; Win64; x64) AppleWebKit/537.36 (KHTML, like Gecko) Chrome/100.0.4896.127 Safari/537.36" etag="QHZD-6Z0eiI5ppEBERza" version="17.4.6" type="github">
  <diagram id="bx_d5PtWuTx-MidBUgYT" name="Page-1">
    <mxGraphModel dx="1422" dy="762" grid="1" gridSize="10" guides="1" tooltips="1" connect="1" arrows="1" fold="1" page="1" pageScale="1" pageWidth="827" pageHeight="1169" math="0" shadow="0">
      <root>
        <mxCell id="0" />
        <mxCell id="1" parent="0" />
        <mxCell id="MA5871qkIrp27F9e80sT-1" value="启动类加载器" style="rounded=1;whiteSpace=wrap;html=1;shadow=1;sketch=1;fillStyle=zigzag-line;fillColor=#60a917;strokeColor=#2D7600;fontColor=#4D4D4D;fontSize=19;fontStyle=3" vertex="1" parent="1">
          <mxGeometry x="320" y="120" width="200" height="80" as="geometry" />
        </mxCell>
        <mxCell id="MA5871qkIrp27F9e80sT-6" value="扩展类加载器" style="rounded=1;whiteSpace=wrap;html=1;shadow=1;sketch=1;fillStyle=zigzag-line;fillColor=#60a917;strokeColor=#2D7600;fontColor=#4D4D4D;fontSize=19;fontStyle=3" vertex="1" parent="1">
          <mxGeometry x="320" y="280" width="200" height="80" as="geometry" />
        </mxCell>
        <mxCell id="MA5871qkIrp27F9e80sT-7" value="应用程序类加载器" style="rounded=1;whiteSpace=wrap;html=1;shadow=1;sketch=1;fillStyle=zigzag-line;fillColor=#60a917;strokeColor=#2D7600;fontColor=#4D4D4D;fontSize=19;fontStyle=3" vertex="1" parent="1">
          <mxGeometry x="320" y="440" width="200" height="80" as="geometry" />
        </mxCell>
        <mxCell id="MA5871qkIrp27F9e80sT-13" style="edgeStyle=orthogonalEdgeStyle;rounded=0;orthogonalLoop=1;jettySize=auto;html=1;exitX=0.5;exitY=0;exitDx=0;exitDy=0;entryX=0.5;entryY=1;entryDx=0;entryDy=0;fontSize=19;fontColor=#4D4D4D;" edge="1" parent="1" source="MA5871qkIrp27F9e80sT-8" target="MA5871qkIrp27F9e80sT-7">
          <mxGeometry relative="1" as="geometry" />
        </mxCell>
        <mxCell id="MA5871qkIrp27F9e80sT-8" value="自定义类加载器" style="rounded=1;whiteSpace=wrap;html=1;shadow=1;sketch=1;fillStyle=zigzag-line;fillColor=#60a917;strokeColor=#2D7600;fontColor=#4D4D4D;fontSize=19;fontStyle=3" vertex="1" parent="1">
          <mxGeometry x="120" y="600" width="200" height="80" as="geometry" />
        </mxCell>
        <mxCell id="MA5871qkIrp27F9e80sT-14" style="edgeStyle=orthogonalEdgeStyle;rounded=0;orthogonalLoop=1;jettySize=auto;html=1;exitX=0.5;exitY=0;exitDx=0;exitDy=0;fontSize=19;fontColor=#4D4D4D;" edge="1" parent="1" source="MA5871qkIrp27F9e80sT-9">
          <mxGeometry relative="1" as="geometry">
            <mxPoint x="420" y="520" as="targetPoint" />
          </mxGeometry>
        </mxCell>
        <mxCell id="MA5871qkIrp27F9e80sT-9" value="自定义类加载器" style="rounded=1;whiteSpace=wrap;html=1;shadow=1;sketch=1;fillStyle=zigzag-line;fillColor=#60a917;strokeColor=#2D7600;fontColor=#4D4D4D;fontSize=19;fontStyle=3" vertex="1" parent="1">
          <mxGeometry x="520" y="600" width="200" height="80" as="geometry" />
        </mxCell>
        <mxCell id="MA5871qkIrp27F9e80sT-11" value="" style="endArrow=classic;html=1;rounded=0;fontSize=19;fontColor=#4D4D4D;exitX=0.5;exitY=0;exitDx=0;exitDy=0;entryX=0.5;entryY=1;entryDx=0;entryDy=0;" edge="1" parent="1" source="MA5871qkIrp27F9e80sT-6" target="MA5871qkIrp27F9e80sT-1">
          <mxGeometry width="50" height="50" relative="1" as="geometry">
            <mxPoint x="420" y="300" as="sourcePoint" />
            <mxPoint x="470" y="250" as="targetPoint" />
          </mxGeometry>
        </mxCell>
        <mxCell id="MA5871qkIrp27F9e80sT-12" value="" style="endArrow=classic;html=1;rounded=0;fontSize=19;fontColor=#4D4D4D;exitX=0.5;exitY=0;exitDx=0;exitDy=0;entryX=0.5;entryY=1;entryDx=0;entryDy=0;" edge="1" parent="1">
          <mxGeometry width="50" height="50" relative="1" as="geometry">
            <mxPoint x="419.5" y="440" as="sourcePoint" />
            <mxPoint x="419.5" y="360" as="targetPoint" />
            <Array as="points" />
          </mxGeometry>
        </mxCell>
      </root>
    </mxGraphModel>
  </diagram>
</mxfile>
